PathFileType	4	(X/Y/Z)	C:/Users/beibeiliu/ov580/test_trc/User2\sequence.11_training_dense_right.trc
DataRate	CameraRate	NumFrames	NumMarkers	Units	OrigDataRate	OrigDataStartFrame	OrigNumFrames
120	120	10	19	mm	120	321	366
Frame#	Time	ThumbCMC			ThumbMCP			ThumbIP			ThumbTip			IndexMCP			IndexPIP			IndexTip			MiddleMCP			MiddlePIP			MiddleTip			RingMCP			RingPIP			RingTip			PinkyMCP			PinkyPIP			PinkyTip			BackHand1			BackHand2			BackHand3	
		X0	Y0	Z0	X1	Y1	Z1	X2	Y2	Z2	X3	Y3	Z3	X4	Y4	Z4	X5	Y5	Z5	X6	Y6	Z6	X7	Y7	Z7	X8	Y8	Z8	X9	Y9	Z9	X10	Y10	Z10	X11	Y11	Z11	X12	Y12	Z12	X13	Y13	Z13	X14	Y14	Z14	X15	Y15	Z15	X16	Y16	Z16	X17	Y17	Z17	X18	Y18	Z18	
320	2.66667	69.5698	26.9623	111.141	47.3091	24.7551	88.3617	28.763	28.1131	58.7107	22.5924	28.6362	31.5927	98.8664	77.1591	53.5842	91.911	94.6646	28.2779	85.0606	96.4863	-1.05451	123.485	74.3117	42.7513	125.015	87.4643	13.7184	119.695	91.3546	-20.6358	142.964	52.1079	38.8637	146.255	62.8108	11.2189	138.829	70.5476	-19.2204	147.946	24.4236	43.7727	154.564	32.8469	17.6885	157.264	41.7022	-10.0219	137.422	27.1426	88.5049	141.895	11.5124	118.142	111.72	39.5994	113.701	
321	2.675	71.2039	24.7684	110.657	50.2651	24.9244	84.615	30.8616	29.2564	53.4144	29.5507	28.1972	23.9718	104.653	75.404	52.2326	103.838	90.979	21.8242	96.399	93.5158	-4.62082	135.369	68.8398	41.2306	138.392	81.4312	11.6658	135.846	86.0146	-22.6129	145.851	49.3017	41.144	154.702	59.459	12.3048	149.028	65.7805	-14.1293	155.725	21.7963	41.0569	163.699	27.6842	16.9032	164.817	36.3952	-9.63242	142.749	25.0364	89.8135	143.91	12.6534	118.467	117.443	37.7291	108.704	
322	2.68333	72.3623	25.024	106.402	54.8445	23.2048	79.6312	36.008	26.5732	48.4037	35.9354	23.7118	23.9604	109.975	70.953	51.0457	108.017	88.9336	21.4193	105.951	87.9531	-6.85944	136.733	68.0497	43.0485	143.126	81.7809	12.393	140.964	85.34	-23.8682	153.345	46.305	40.433	160.031	56.7861	12.1621	156.677	63.1157	-16.9574	162.806	15.7658	43.3244	166.855	23.9605	19.9616	173.041	28.881	-10.1207	148.095	20.2386	87.9923	146.626	9.86118	117.519	118.891	33.5931	110.734	
323	2.69167	71.8829	18.4187	107.533	53.1203	18.8148	78.0916	37.5084	18.8953	50.9291	34.7909	18.714	20.5999	107.149	71.428	51.4556	107.608	85.8772	22.6647	101.458	86.6509	-8.50824	136.133	64.1092	47.6977	140.082	82.3462	13.6244	139.484	85.0992	-17.3053	151.727	44.0886	45.8888	156.713	59.1901	16.9358	158.574	62.4316	-11.9294	162.419	16.1197	46.3528	168.375	26.9456	21.1114	175.183	32.0251	-5.58763	142.638	21.7043	91.0451	142.934	10.0074	119.578	114.542	33.3379	113.825	
324	2.7	68.082	13.1487	107.035	46.2538	13.2192	79.7851	33.6972	12.3393	50.3266	30.9264	12.5089	22.2054	96.3941	70.0352	55.9986	94.3672	87.0733	26.6988	90.8158	86.4996	-5.60106	126.344	66.8001	50.1099	130.279	85.3703	17.8381	129.009	88.695	-11.3016	145.448	47.9931	47.8446	153.703	60.6037	22.3892	149.374	69.619	-7.41653	156.229	22.2658	48.2991	166.482	30.3758	23.8168	170.425	36.9357	1.73298	141.052	17.1507	91.949	140.609	7.50299	120.244	108.762	31.2629	110.588	
325	2.70833	64.99	4.87052	113.172	42.6613	4.29989	84.0473	26.6972	4.54958	54.2717	26.3741	5.9345	24.5262	85.8905	68.9424	59.8496	85.7785	83.7247	34.6982	78.7487	83.8701	3.23511	115.841	68.2681	53.5984	118.032	86.9616	23.5491	116.636	90.5879	-7.62346	134.91	50.3847	51.3631	140.362	65.4083	28.1583	139.775	73.8555	-5.56252	153.753	23.5988	50.3583	160.693	37.2633	27.0758	162.98	46.7804	0.769314	135.063	20.0345	92.7899	138.17	6.42505	120.144	103.088	28.8267	114.204	
326	2.71667	63.0347	-0.787766	115.787	44.0395	-2.32433	84.6057	28.3417	0.0547986	53.4812	29.0179	-0.292664	28.2423	86.3609	65.2846	60.5562	80.7212	80.7649	37.9214	69.6619	81.454	8.20177	113.535	63.3481	57.5566	114.522	85.4599	24.759	108.155	91.2257	-6.79307	133.358	47.2016	54.4483	140.707	65.723	29.2712	134.556	75.1578	-0.902506	152.574	24.0511	53.1426	158.863	39.2529	28.4644	162.776	49.7558	8.14995	132.049	17.8372	95.1134	139.488	3.40002	123.688	106.481	21.779	117.859	
327	2.725	70.5778	-1.6716	109.224	45.1962	-6.29756	85.3137	33.886	-6.39616	54.7213	34.855	-5.19575	23.7367	88.0197	59.7424	60.5893	84.0094	76.7002	33.1757	73.9835	76.2867	1.69997	119.315	61.5508	53.1953	117.909	80.6828	26.5704	113.618	85.0579	-11.2129	140.992	45.2096	51.0463	141.622	62.535	28.7371	138.891	69.7965	-2.9397	156.978	19.139	53.6009	165.95	33.3945	30.4428	168.497	44.9684	3.43848	140.32	14.3754	93.6192	138.98	4.14584	123.88	109.009	22.1502	113.96	
328	2.73333	75.4968	-1.09602	105.434	57.6038	-5.6224	77.2338	42.1184	-7.56513	48.3184	39.9366	-9.94569	17.3008	99.0154	55.4096	51.7436	96.4623	71.1272	22.11	89.9892	67.2353	-8.35273	131.774	55.4791	48.1066	130.565	74.5422	15.0858	130.845	76.1592	-17.6648	149.33	41.4322	46.4603	158.822	51.6681	22.0107	154.908	56.7047	-13.9426	163.312	11.6141	53.1024	176.678	25.4915	26.6583	182.391	32.3743	6.16322	145.667	10.6365	92.6835	147.775	-0.45776	120.807	114.401	20.2021	109.023	
329	2.74167	83.3233	1.51643	100.068	65.3621	-6.43301	71.1877	49.0634	-9.19833	39.2072	55.3794	-15.4606	12.68	116.35	48.517	41.8156	113.896	62.4214	8.96704	112.306	54.1053	-23.3916	147.096	49.3163	38.0628	152.091	62.3049	4.65671	149.005	60.7475	-28.6172	165.704	26.5066	43.8866	177.761	37.5199	13.6106	174.112	38.8287	-15.4699	177.815	0.777582	52.181	194.412	7.72063	27.5967	196.71	11.7519	-0.980064	152.676	8.20552	89.9771	154.4	0.417485	119.654	121.408	22.7444	106.151	
